<svg width="24" height="24" viewBox="0 0 24 24" fill="#514D34" xmlns="http://www.w3.org/2000/svg">
<path d="M16.4806 2H7.51917C4.4759 2 2 4.47602 2 7.5193V16.4808C2 19.5241 4.4759 22 7.51917 22H16.4806C19.5241 22 22 19.524 22 16.4808V7.5193C22.0001 4.47602 19.5241 2 16.4806 2ZM20.2257 16.4808C20.2257 18.5456 18.5456 20.2255 16.4808 20.2255H7.51917C5.45436 20.2257 3.7745 18.5456 3.7745 16.4808V7.5193C3.7745 5.45449 5.45436 3.7745 7.51917 3.7745H16.4806C18.5455 3.7745 20.2255 5.45449 20.2255 7.5193V16.4808H20.2257Z" />
<path d="M12 6.84677C9.15831 6.84677 6.8465 9.15858 6.8465 12.0003C6.8465 14.8418 9.15831 17.1535 12 17.1535C14.8417 17.1535 17.1535 14.8418 17.1535 12.0003C17.1535 9.15858 14.8417 6.84677 12 6.84677ZM12 15.3789C10.1369 15.3789 8.62098 13.8632 8.62098 12.0001C8.62098 10.1369 10.1368 8.62111 12 8.62111C13.8632 8.62111 15.379 10.1369 15.379 12.0001C15.379 13.8632 13.8631 15.3789 12 15.3789Z" />
<path d="M17.3696 5.34209C17.0278 5.34209 16.6919 5.48049 16.4504 5.72302C16.2078 5.96436 16.0684 6.3003 16.0684 6.64336C16.0684 6.98537 16.208 7.32124 16.4504 7.56377C16.6918 7.80511 17.0278 7.94471 17.3696 7.94471C17.7127 7.94471 18.0475 7.80511 18.29 7.56377C18.5325 7.32124 18.6709 6.9853 18.6709 6.64336C18.6709 6.3003 18.5325 5.96436 18.29 5.72302C18.0487 5.48049 17.7127 5.34209 17.3696 5.34209V5.34209Z" />
</svg>
